<?xml version="1.0" encoding="UTF-8" standalone="no"?>
<!-- Created with Inkscape (http://www.inkscape.org/) -->

<svg
   xmlns:dc="http://purl.org/dc/elements/1.1/"
   xmlns:cc="http://creativecommons.org/ns#"
   xmlns:rdf="http://www.w3.org/1999/02/22-rdf-syntax-ns#"
   xmlns:svg="http://www.w3.org/2000/svg"
   xmlns="http://www.w3.org/2000/svg"
   xmlns:sodipodi="http://sodipodi.sourceforge.net/DTD/sodipodi-0.dtd"
   xmlns:inkscape="http://www.inkscape.org/namespaces/inkscape"
   version="1.1"
   id="svg4077"
   width="565.86188"
   height="220.69905"
   viewBox="0 0 565.86188 220.69905"
   sodipodi:docname="gcm.svg"
   inkscape:version="0.92.3 (2405546, 2018-03-11)">
  <metadata
     id="metadata4083">
    <rdf:RDF>
      <cc:Work
         rdf:about="">
        <dc:format>image/svg+xml</dc:format>
        <dc:type
           rdf:resource="http://purl.org/dc/dcmitype/StillImage" />
        <dc:title></dc:title>
      </cc:Work>
    </rdf:RDF>
  </metadata>
  <defs
     id="defs4081" />
  <sodipodi:namedview
     pagecolor="#ffffff"
     bordercolor="#666666"
     borderopacity="1"
     objecttolerance="10"
     gridtolerance="10"
     guidetolerance="10"
     inkscape:pageopacity="0"
     inkscape:pageshadow="2"
     inkscape:window-width="1366"
     inkscape:window-height="705"
     id="namedview4079"
     showgrid="false"
     inkscape:zoom="0.638"
     inkscape:cx="746.86521"
     inkscape:cy="3.7664481"
     inkscape:window-x="-8"
     inkscape:window-y="-8"
     inkscape:window-maximized="1"
     inkscape:current-layer="svg4077"
     fit-margin-top="0"
     fit-margin-left="0"
     fit-margin-right="0"
     fit-margin-bottom="0" />
  <g
     id="g4087">
    <path
       style="fill:#fcfcfc;stroke-width:0.43647277"
       d="M 0,110.34953 V 0 H 282.91537 565.83075 V 110.34953 220.69905 H 282.91537 0 Z"
       id="path4103"
       inkscape:connector-curvature="0" />
    <path
       style="fill:#9f9f9f;stroke-width:0.43647277"
       d="m 205.90931,219.91746 c -9.54384,-1.39204 -18.76243,-5.8829 -26.91818,-13.11326 -4.9314,-4.37186 -7.93645,-8.9303 -10.66694,-16.18097 -1.71715,-4.55979 -2.39961,-8.22035 -2.27079,-12.17992 l 0.11223,-3.44967 14.24768,-0.13234 14.24769,-0.13234 0.36961,1.30154 c 0.20328,0.71584 0.36961,2.62176 0.36961,4.23536 0,4.97145 1.69626,9.58148 4.50046,12.23119 1.76492,1.6677 6.29187,4.10126 9.83392,5.28645 2.20936,0.73927 4.15139,0.93862 8.86468,0.91001 5.46912,-0.0332 6.31873,-0.16187 9.05329,-1.37094 5.4596,-2.41394 9.63902,-6.61486 13.23773,-13.30587 2.67095,-4.96602 3.83732,-9.28478 4.68737,-17.35609 0.489,-4.64313 1.18212,-21.68809 0.90623,-22.28574 -0.10994,-0.23817 -1.33648,0.72296 -2.72564,2.13583 -3.36604,3.42349 -10.00951,7.71302 -14.31345,9.24184 -9.82772,3.49095 -23.06164,2.98497 -32.15849,-1.22951 -13.84969,-6.41644 -24.89258,-22.60631 -30.33621,-44.4756 -5.10788,-20.520431 -4.54377,-46.160282 1.49488,-67.946065 4.51876,-16.302403 12.9093,-28.849033 24.12608,-36.0764355 4.92373,-3.1725546 8.30724,-4.402129 14.52298,-5.27769352 6.40607,-0.90237286 10.88871,-0.90633055 17.35215,-0.0153202 7.76602,1.07057642 13.09128,3.83584742 19.08651,9.91113222 1.35026,1.368284 2.61577,2.487788 2.81225,2.487788 0.19807,0 0.35725,-2.001205 0.35725,-4.4912565 0,-3.6295513 0.11448,-4.5500721 0.59668,-4.7978056 0.90838,-0.4666847 27.43624,-0.3505391 27.99324,0.1225615 0.39522,0.3356957 0.46121,14.2527306 0.35018,73.8532206 -0.12152,65.233374 -0.20757,74.144984 -0.77009,79.752474 -1.37512,13.7077 -3.12575,22.91002 -5.72859,30.11279 -1.38741,3.83933 -2.30632,5.50737 -5.50477,9.99246 -2.11165,2.9611 -5.30095,6.84563 -7.08733,8.63229 -5.3553,5.35616 -12.71268,10.00371 -19.5842,12.37107 -5.49425,1.89285 -22.04719,2.55311 -31.05802,1.23882 z m 18.99589,-86.07649 c 5.99141,-2.47757 12.32468,-10.5827 16.09774,-20.60139 5.95625,-15.815792 7.3123,-43.508836 2.99784,-61.221268 -1.89723,-7.788809 -5.65596,-15.142497 -10.57119,-20.681746 -8.04279,-9.063876 -15.97657,-9.838484 -24.35843,-2.378215 -7.96053,7.085262 -12.74154,18.524619 -14.63793,35.023677 -0.75445,6.563898 -0.86743,22.926005 -0.20508,29.701436 1.82746,18.693996 6.80975,31.312456 14.4724,36.653726 6.44591,4.49314 11.28295,5.53901 16.20465,3.50378 z M 58.925897,191.36565 C 51.834933,189.90534 43.823433,183.48685 39.335769,175.67085 37.434803,172.36 35.385026,166.91257 34.52364,162.88224 33.915653,160.03755 33.511717,159.35966 27.595484,151.25535 20.366185,141.35233 15.399131,133.31729 10.737913,123.98539 7.3045453,117.11169 3.2790433,106.61029 1.9187605,100.97872 -0.48755851,91.016561 -0.57476907,77.32324 1.7195159,69.694437 3.9219796,62.370956 9.5685348,53.513949 14.522989,49.611327 c 3.125029,-2.461586 7.268558,-4.398804 11.15168,-5.21373 3.732518,-0.783318 11.674917,-0.266016 15.986853,1.041252 l 3.373641,1.022801 2.435611,-3.660829 C 51.288876,37.062057 56.425936,30.507748 60.596637,26.053704 75.184282,10.475026 89.06689,6.5690633 101.28503,14.605759 c 9.47456,6.232058 15.22749,16.671274 16.88815,30.645079 l 0.4511,3.795849 4.22401,5.023343 c 10.70949,12.736118 19.44926,27.421241 24.47742,41.12853 6.81131,18.56834 6.60667,33.52413 -0.65481,47.85612 -1.9602,3.86884 -6.13228,9.31555 -8.74121,11.41173 -2.80966,2.25748 -6.11993,4.0086 -9.41893,4.98259 -3.83523,1.13231 -11.83693,1.1016 -16.942,-0.065 l -4.04931,-0.92535 -4.06093,5.2 c -11.624178,14.88472 -23.026562,24.20518 -33.073452,27.0347 -3.476849,0.97918 -8.529593,1.27563 -11.459171,0.67231 z m 14.6321,-25.22614 c 4.145231,-0.58253 10.473777,-2.73615 15.327552,-5.21601 4.325946,-2.21019 9.569001,-5.41538 9.569001,-5.84973 0,-0.18456 -1.87849,-1.30921 -4.17442,-2.49922 -4.526634,-2.34622 -13.631387,-8.23875 -18.573149,-12.02042 -4.839686,-3.70355 -10.447835,-8.65844 -10.447835,-9.23082 0,-1.08752 3.95137,-0.1909 14.334379,3.25268 36.104325,11.97418 54.857555,2.82893 53.821155,-26.24659 -0.44364,-12.445915 -3.43383,-24.536435 -11.61598,-46.967994 l -2.76324,-7.575482 -0.28556,5.302838 c -0.8258,15.335134 -3.88676,30.852015 -9.6139,48.735598 -2.96384,9.25492 -6.21124,17.72651 -6.72063,17.53234 -0.56679,-0.21605 -0.26524,-6.80539 0.75612,-16.52227 1.39333,-13.255621 1.69599,-18.296922 1.69358,-28.209052 -0.003,-13.851426 -1.22204,-22.53556 -4.25941,-30.351907 -5.652236,-14.545407 -17.013741,-17.723479 -33.271801,-9.306882 -4.486449,2.322579 -13.102829,8.12536 -13.311881,8.965009 -0.08112,0.325821 0.419503,0.853334 1.112499,1.172252 0.692991,0.318918 4.06085,2.454461 7.484126,4.745651 8.635969,5.780022 18.861025,14.441596 18.861025,15.977035 0,0.766735 -2.991359,0.21027 -12.636887,-2.350773 C 56.30664,66.147227 54.683868,65.902307 45.45507,65.945881 c -7.281483,0.03439 -8.668802,0.173635 -11.316615,1.135944 -17.831082,6.480426 -21.009626,27.167841 -9.557783,62.206405 2.150013,6.57828 7.896189,21.21135 8.329359,21.21135 0.156955,0 0.288483,-1.53403 0.292284,-3.40897 0.02941,-14.50644 5.323132,-36.68926 13.769544,-57.699919 2.564609,-6.379526 5.750783,-13.503252 6.20911,-13.882491 1.147625,-0.949591 0.835584,2.396454 -1.727082,18.51962 -2.533632,15.94049 -3.290796,24.93468 -3.053385,36.27047 0.150255,7.17433 0.38177,10.33672 0.997375,13.62359 2.466724,13.17049 8.223486,20.66113 17.058247,22.19602 3.338265,0.57996 3.133088,0.57933 7.101873,0.0216 z m 260.978713,-4.0437 c -10.47556,-1.16394 -19.91113,-5.27471 -27.43611,-11.953 -19.95045,-17.70571 -28.63897,-63.47797 -19.24917,-101.407207 2.7015,-10.912499 7.24628,-21.789005 11.94198,-28.579417 5.52781,-7.993702 14.84124,-14.9358515 24.05039,-17.9269474 2.99465,-0.9726505 12.99966,-2.22611119 17.72936,-2.22119386 4.4294,0.00460513 14.80819,1.24631176 16.97493,2.03086066 11.19705,4.0543252 19.48962,10.8017106 24.78957,20.1704996 4.38277,7.747428 7.7234,21.067761 5.81534,23.187864 -0.36922,0.410244 -4.52268,0.535443 -14.61729,0.440613 l -14.10152,-0.132472 -0.2917,-4.040258 c -0.16043,-2.222141 -0.56501,-5.156066 -0.89907,-6.519833 -2.32601,-9.4957 -15.5666,-14.330383 -25.11094,-9.169039 -3.87468,2.09533 -6.42845,4.462448 -10.11529,9.375971 -4.08975,5.4505 -5.68534,9.142759 -7.31123,16.918577 -3.31233,15.841187 -3.21131,42.822236 0.21934,58.583732 2.27667,10.45978 8.09249,19.50662 15.65124,24.34643 10.19939,6.5306 24.26024,1.74938 26.63714,-9.05764 0.32214,-1.46464 0.72853,-4.25384 0.90311,-6.19821 l 0.3174,-3.53523 14.42037,-0.13225 14.42036,-0.13224 0.23376,1.24683 c 0.74909,3.99597 -2.14212,14.16944 -6.21029,21.8524 -4.14543,7.82882 -14.39795,16.7197 -23.12411,20.05296 -6.6321,2.53336 -17.4221,3.71103 -25.63757,2.7982 z m 64.57827,-4.99155 c -0.26737,-0.66888 -0.39291,-25.10508 -0.39291,-76.482357 0,-67.962473 0.0592,-75.5786598 0.59276,-76.293056 0.5171,-0.6922665 2.33813,-0.7936219 14.25894,-0.7936219 10.12629,0 13.78341,0.1569795 14.11883,0.6060385 0.28718,0.3844761 0.45267,2.3231479 0.45267,5.3028376 0,2.5832398 0.0999,4.6967988 0.22203,4.6967988 0.12214,0 1.0687,-0.991546 2.10346,-2.203435 2.22963,-2.6113004 7.11434,-6.1509374 11.91055,-8.6308337 4.20774,-2.1756343 9.72983,-3.30825642 16.10158,-3.30255582 14.68794,0.01314088 24.46248,5.33554762 31.89678,17.36839852 l 2.37762,3.848319 3.43565,-4.443598 C 500.96836,10.60071 504.33864,7.7057715 511.53525,3.5987434 515.82402,1.1511737 520.98949,0 527.68327,0 c 12.45688,0 21.49576,4.4692362 28.69599,14.188608 3.65761,4.937317 6.04466,10.753792 7.54611,18.387471 1.74136,8.853297 1.90364,14.973163 1.90455,71.829701 v 53.14501 l -0.84875,0.27667 c -0.46681,0.15217 -6.95971,0.21332 -14.42868,0.13588 l -13.57994,-0.14079 -0.23301,-54.03844 c -0.26171,-60.687749 -0.21799,-59.667988 -2.87562,-67.067406 -1.94209,-5.407139 -3.15862,-7.256079 -5.92844,-9.010422 -4.40907,-2.792617 -9.4172,-1.724215 -15.42768,3.291255 -7.29948,6.091069 -12.88045,19.422445 -14.6142,34.909159 -0.3097,2.766601 -0.52388,17.891243 -0.67937,47.978054 l -0.22705,43.9378 -14.22438,0.13231 c -13.5183,0.12574 -14.24294,0.0858 -14.59851,-0.80358 -0.23807,-0.59558 -0.42671,-20.75195 -0.51879,-55.43333 -0.16059,-60.472556 -0.0963,-58.879883 -2.65209,-65.674605 -1.88105,-5.000863 -2.841,-6.330499 -5.9892,-8.295725 -4.66317,-2.910888 -8.39788,-2.235745 -14.53586,2.627734 -6.00633,4.759164 -12.32157,17.035536 -14.38119,27.956112 -1.63253,8.655948 -1.68029,10.044953 -1.90975,55.553284 l -0.22158,43.9378 -14.22438,0.13231 c -13.76056,0.128 -14.23721,0.10026 -14.6173,-0.8506 z"
       id="path4101"
       inkscape:connector-curvature="0" />
    <path
       style="fill:#868686;stroke-width:0.43647277"
       d="m 207.50817,219.89389 c -10.69316,-1.73241 -20.30425,-6.37148 -28.60988,-13.80938 -3.97178,-3.55683 -6.33368,-6.89132 -8.88754,-12.54728 -2.57299,-5.69832 -3.71881,-10.38658 -3.57918,-14.64475 l 0.11128,-3.39381 h 13.95716 13.95716 l 0.2753,3.69595 c 0.36888,4.95212 0.814,6.98192 2.1492,9.80066 1.44618,3.05306 3.50581,5.02079 7.32902,7.002 5.23458,2.71258 9.45045,3.62791 15.33164,3.32871 7.35614,-0.37423 11.64,-2.25722 16.31765,-7.17248 4.48622,-4.7141 8.4262,-13.20398 9.487,-20.44258 1.08741,-7.42012 2.1514,-27.87553 1.47889,-28.43199 -0.18343,-0.15178 -1.50011,0.93402 -2.92594,2.41289 -4.91425,5.09702 -11.26075,8.82847 -18.24293,10.72602 -2.49391,0.67776 -5.10324,0.89263 -10.82993,0.8918 -6.51347,-0.001 -8.08146,-0.16144 -11.47458,-1.17454 -9.5413,-2.84879 -16.34346,-7.72394 -22.61059,-16.20515 -16.55201,-22.39961 -21.4445,-60.647584 -12.28636,-96.050925 4.05852,-15.68933 10.76939,-26.830925 21.23169,-35.249487 7.8857,-6.345287 19.58866,-9.40367623 31.16676,-8.14495392 9.80504,1.06596372 16.09376,4.11337082 23.06352,11.17619792 1.35402,1.372099 2.61937,2.364392 2.81189,2.205095 0.19251,-0.159296 0.35003,-2.297283 0.35003,-4.7510809 0,-3.6023726 0.11489,-4.520479 0.59668,-4.768 0.90934,-0.467181 26.6821,-0.3502786 27.24,0.1235577 0.39682,0.3370309 0.46212,14.0657342 0.34888,73.3481872 -0.12337,64.588399 -0.21143,73.655879 -0.76957,79.246449 -1.90846,19.11595 -4.41484,29.51341 -8.92527,37.02543 -7.40088,12.32604 -18.48978,21.21646 -30.62197,24.55089 -7.83605,2.15366 -18.79138,2.65375 -27.44001,1.25257 z m 20.0077,-86.92972 c 8.85802,-5.8992 15.42749,-19.17128 18.04241,-36.450476 2.7075,-17.890925 1.45518,-38.723986 -3.05374,-50.800657 -4.17565,-11.184064 -12.63324,-20.598643 -19.8479,-22.093744 -7.66072,-1.587536 -16.58419,4.971832 -22.46479,16.513173 -9.04975,17.761152 -9.34357,58.383908 -0.57076,78.911964 2.45415,5.74262 5.4566,9.56271 9.74554,12.3995 4.89922,3.24044 6.96008,3.9221 11.35927,3.75726 3.4105,-0.1278 3.83074,-0.26626 6.78997,-2.23702 z M 59.42691,190.86991 c -6.986403,-1.43882 -12.816523,-5.67291 -18.123193,-13.16184 -2.953644,-4.16828 -4.958427,-8.84385 -6.25273,-14.58269 -0.813032,-3.60491 -1.013975,-3.99071 -4.163134,-7.99305 C 20.679759,142.15865 10.281971,124.04947 5.5122157,110.93716 -2.2476606,89.60485 -1.807608,74.032623 6.9785792,59.046662 10.836925,52.46576 17.375418,47.201742 23.953502,45.380465 c 3.156975,-0.874073 4.602765,-0.997808 8.864681,-0.758667 2.800863,0.157159 6.699471,0.741706 8.663575,1.298992 l 3.571097,1.013249 5.216903,-7.285554 c 8.393013,-11.721079 15.330007,-18.882274 22.981838,-23.724598 5.200253,-3.290887 8.368505,-4.355366 13.9003,-4.670264 5.662631,-0.322346 9.280688,0.676434 14.126484,3.89968 9.38457,6.242265 15.35664,17.433394 16.62621,31.156025 0.24749,2.675066 0.42321,3.106031 2.01011,4.930098 3.46912,3.987572 14.65849,19.316333 17.15795,23.505332 7.49234,12.556928 12.65248,25.964622 14.23438,36.985472 0.64458,4.49065 0.55361,13.09743 -0.18194,17.2141 -1.21533,6.80185 -3.81124,13.01521 -7.85663,18.80501 -5.79719,8.29698 -12.7557,11.99765 -22.5579,11.99671 -3.07748,-2.9e-4 -6.47319,-0.33098 -8.58193,-0.83574 -1.91921,-0.45939 -3.85745,-0.83525 -4.30721,-0.83525 -0.53315,0 -2.33819,1.98807 -5.18661,5.71253 -10.682609,13.96808 -21.626862,23.03591 -31.50314,26.10183 -3.781813,1.17399 -8.746004,1.58984 -11.70476,0.98049 z m 14.696918,-24.2613 c 6.195707,-1.01137 13.484294,-4.0291 21.312958,-8.82432 1.970978,-1.20726 3.583595,-2.45346 3.583595,-2.76932 0,-0.31586 -1.442868,-1.31071 -3.206374,-2.21078 -5.089553,-2.59762 -7.759033,-4.19291 -13.202718,-7.88997 C 76.77232,140.9487 67.693354,133.76899 66.579418,132.23611 l -0.754441,-1.03819 1.769647,0.33423 c 0.973305,0.18383 4.283414,1.13113 7.3558,2.10511 11.805825,3.74259 13.65837,4.26395 18.60026,5.2346 26.353976,5.17625 40.326426,-4.61194 40.354606,-28.26982 0.0134,-11.254474 -3.41005,-26.759385 -9.58988,-43.432764 -1.28689,-3.472096 -2.99919,-8.301466 -3.80509,-10.731933 -0.80591,-2.430467 -1.57359,-4.419031 -1.70597,-4.419031 -0.13238,0 -0.34672,2.783989 -0.47632,6.186643 -0.65737,17.259181 -4.98542,37.223001 -12.76099,58.862145 -1.42741,3.97243 -2.75041,7.09425 -2.94001,6.93737 -0.4376,-0.36209 -0.21974,-3.45505 1.19307,-16.93765 1.49602,-14.276743 1.87526,-32.034638 0.86857,-40.670723 -0.80936,-6.943217 -2.41355,-13.738763 -4.17,-17.664605 -7.137362,-15.952767 -20.843382,-17.130847 -41.081718,-3.531114 -3.306862,2.222141 -6.080765,4.328174 -6.164225,4.680071 -0.08936,0.376776 0.598687,1.070356 1.673603,1.687061 4.266489,2.447769 11.339218,7.170936 14.750718,9.850526 4.624482,3.632327 9.935305,8.384569 10.639345,9.52031 0.500395,0.807228 0.40727,0.843889 -1.32834,0.522916 C 77.9815,71.271415 73.407109,70.127371 68.842741,68.91894 56.40425,65.625807 54.949891,65.401664 46.020901,65.401664 c -9.359661,0 -12.127581,0.610528 -17.262458,3.807624 -13.643228,8.49459 -14.909859,30.018682 -3.698934,62.856622 1.877052,5.49807 7.832361,20.4538 8.14462,20.4538 0.13868,0 0.360245,-3.01125 0.492367,-6.69168 0.53512,-14.90641 4.557514,-32.34618 11.968641,-51.89205 1.421819,-3.749864 3.653701,-9.204211 4.959736,-12.120772 2.302935,-5.142787 2.377693,-5.249486 2.476887,-3.535225 0.05626,0.972187 -0.504159,5.631109 -1.245367,10.35316 -3.167581,20.179867 -3.94939,27.936817 -3.94939,39.185017 0,23.6449 5.94664,36.42454 18.057538,38.8066 3.079602,0.60571 4.365286,0.60317 8.159287,-0.0162 z m 261.602412,-5.01152 c -14.53269,-1.23414 -26.69586,-7.95037 -34.96666,-19.30781 -6.7641,-9.28844 -12.2372,-24.10592 -14.66111,-39.69248 -3.41603,-21.966271 -1.27468,-46.73829 5.64013,-65.247095 4.29749,-11.503077 9.0598,-19.08627 15.70704,-25.010906 10.24206,-9.1286629 24.31545,-13.3677874 39.40159,-11.86837222 11.88028,1.18078432 19.63724,4.40382962 27.63544,11.48262922 5.77298,5.109373 10.35644,12.446201 12.91422,20.672101 1.36328,4.384273 2.1783,11.004111 1.49127,12.112422 -0.38047,0.613762 -2.61252,0.706902 -14.2639,0.59521 l -13.81285,-0.132411 -0.28446,-4.203956 c -0.35445,-5.238255 -1.39733,-8.565851 -3.49645,-11.156339 -3.55223,-4.383761 -7.89893,-6.297134 -14.32568,-6.306016 -3.98176,-0.0055 -4.8899,0.162717 -7.54441,1.397503 -3.45849,1.608769 -5.78629,3.402084 -9.17901,7.071407 -6.5428,7.07624 -9.77742,16.080761 -11.45326,31.88359 -0.74504,7.025533 -0.62612,28.911813 0.19555,35.99099 1.301,11.208743 3.62335,19.328173 7.01061,24.510483 4.31685,6.60451 9.33348,11.18724 14.55778,13.2986 3.55853,1.43816 10.05402,1.20873 13.95715,-0.49298 6.81402,-2.97082 9.54573,-7.43732 10.1915,-16.66366 l 0.27071,-3.86757 h 14.07603 c 16.12629,0 14.81873,-0.45868 14.16579,4.96935 -1.03445,8.59996 -6.2198,19.51699 -12.19277,25.67038 -2.97986,3.06986 -8.48602,7.37866 -11.75734,9.20063 -7.35097,4.09411 -18.405,6.01756 -29.27691,5.0943 z m 63.75027,-80.47925 c 0,-69.259722 0.0562,-76.4933692 0.59669,-76.7710339 0.77899,-0.4002253 26.31916,-0.4002253 27.09816,0 0.48846,0.2509478 0.59669,1.2127631 0.59669,5.3028377 0,3.1711332 0.14553,4.9962882 0.39838,4.9962882 0.21913,0 1.44981,-1.144692 2.73485,-2.543761 3.99099,-4.3450989 12.35895,-9.2898376 18.93417,-11.18847951 3.7335,-1.07807042 14.71292,-0.82329869 19.04963,0.44203691 4.35241,1.2699111 9.74364,3.9315193 12.68347,6.2617438 2.54119,2.0142252 7.51231,8.1602178 9.4315,11.6605158 0.73531,1.341117 1.48817,2.438394 1.67297,2.438394 0.1848,0 1.81869,-1.967303 3.63094,-4.371786 6.22293,-8.2567126 15.34212,-14.5751539 23.85527,-16.52865904 11.8537,-2.72005416 25.36382,1.60730914 33.46798,10.71998604 6.4023,7.198996 9.45006,15.269548 11.31643,29.966556 0.59756,4.705496 0.67451,10.609577 0.79013,60.646371 l 0.1281,55.43337 -14.25561,-0.13235 -14.25566,-0.13235 -0.22776,-54.03845 c -0.12528,-29.721137 -0.34456,-54.720229 -0.48733,-55.553532 -0.14274,-0.833303 -0.43732,-2.866769 -0.6546,-4.518814 -0.4702,-3.574718 -3.21474,-11.136865 -4.82378,-13.291091 -1.44958,-1.94073 -3.84297,-3.49873 -6.35416,-4.136333 -6.11543,-1.552723 -15.18777,5.165336 -20.07772,14.867514 -3.79857,7.536747 -5.63548,13.533091 -6.88717,22.482205 -0.7807,5.581428 -0.82046,7.530802 -1.01982,49.998181 l -0.20747,44.19032 -14.01261,0.13235 -14.01261,0.13235 -0.18748,-51.89815 c -0.19521,-54.02675 -0.36556,-60.153684 -1.83639,-66.039046 -1.07017,-4.282192 -2.75005,-8.016356 -4.51759,-10.041921 -1.79323,-2.055025 -6.16367,-4.351495 -8.28135,-4.351495 -3.62173,0 -9.61474,4.005501 -13.75934,9.196214 -4.28538,5.367022 -8.81444,15.771233 -10.32087,23.709342 -1.61137,8.490899 -1.65645,9.812654 -1.88346,55.222556 l -0.21965,43.9378 -14.05147,0.1324 -14.05146,0.1324 z"
       id="path4099"
       inkscape:connector-curvature="0" />
    <path
       style="fill:#707070;stroke-width:0.43647277"
       d="m 209.33629,220.19152 c -8.44806,-1.29647 -17.09656,-4.62249 -23.89595,-9.18982 -7.00121,-4.70291 -10.92376,-8.75402 -13.70256,-14.15169 -3.64282,-7.07598 -5.38354,-13.03427 -5.38354,-18.42725 v -2.67157 h 14.09187 14.09186 l 0.21597,3.914 c 0.41951,7.60309 2.45496,11.92054 7.09466,15.04873 7.13128,4.80806 16.76169,6.26731 24.68613,3.74057 5.6439,-1.79958 11.55011,-7.52409 15.06393,-14.60049 2.2538,-4.53889 3.07667,-7.26083 3.94942,-13.06416 1.25536,-8.34748 2.06508,-27.86574 1.15603,-27.86574 -0.20643,0 -1.40821,1.11432 -2.67063,2.47627 -9.395,10.13566 -24.57731,14.35162 -39.30224,10.91377 -13.733,-3.20627 -24.07917,-13.12217 -31.94969,-30.62101 -3.56687,-7.93035 -6.26262,-17.89304 -7.79891,-28.822378 -0.91835,-6.533262 -1.10696,-22.983917 -0.35212,-30.71154 1.9412,-19.872775 6.76781,-35.25329 14.43435,-45.996661 9.68674,-13.574343 21.29589,-19.80000101 36.89387,-19.7851387 11.77711,0.0112217 19.08935,2.9069234 27.22352,10.7807157 1.69477,1.640525 3.25858,2.982772 3.47513,2.982772 0.23729,0 0.43682,-1.856063 0.50219,-4.6715472 l 0.10846,-4.6715474 h 13.95716 13.95715 l 0.11104,65.4016636 c 0.11206,66.004911 -0.0484,77.349841 -1.27141,89.869421 -1.17892,12.06856 -3.13708,21.84405 -5.6705,28.3081 -3.4464,8.79354 -11.45596,18.19168 -20.68411,24.27005 -8.26652,5.44495 -15.73711,7.56309 -27.55921,7.81386 -4.3569,0.0924 -9.20424,-0.0288 -10.77187,-0.26938 z m 13.43744,-84.87807 c 4.11534,-0.99323 7.46642,-3.65106 11.71346,-9.29025 6.47535,-8.59794 10.0491,-18.91842 11.89806,-34.359865 0.75361,-6.293725 0.64413,-25.169044 -0.17869,-30.806961 -1.50077,-10.283192 -3.87788,-17.457023 -7.9398,-23.96134 -8.9518,-14.334458 -19.38392,-17.476159 -29.16572,-8.78345 -11.4084,10.138204 -16.53134,28.056824 -15.85666,55.462273 0.45953,18.666683 3.84697,33.252583 9.7131,41.823533 3.63137,5.30577 11.16331,9.96741 16.79849,10.39686 0.4287,0.0327 1.7867,-0.18369 3.01776,-0.4808 z M 58.662273,190.36238 C 51.94582,188.85974 45.076224,183.43844 40.39958,175.94997 38.03151,172.1581 36.939921,169.48255 35.626816,164.25168 L 34.451602,159.5701 28.07089,150.86392 C 13.301712,130.71206 5.0371494,113.60894 1.2943158,95.451077 -0.17624399,88.316851 -0.25903311,80.023299 1.0825766,74.239726 3.7298666,62.827464 9.6532239,53.419043 17.163533,48.69738 24.30353,44.208529 31.827204,43.488621 42.113263,46.310045 l 3.070937,0.842346 6.548185,-8.873155 C 62.807926,23.271257 70.933203,16.134993 81.027688,12.549775 c 4.037923,-1.434134 10.493799,-1.441917 14.463241,-0.01744 7.311231,2.623717 14.464291,9.624515 18.019091,17.635512 7.02741,15.836804 5.93862,40.004379 -3.22314,71.543493 -2.34334,8.06687 -6.88865,21.01147 -7.37788,21.01147 -0.37143,0 -0.26612,-1.46458 1.03499,-14.39341 1.30325,-12.950155 1.67707,-19.143324 1.67743,-27.79002 3.8e-4,-12.95869 -1.15353,-21.474779 -3.97661,-29.3442 C 96.134399,35.834757 85.761597,31.756712 69.991766,38.750852 65.559787,40.716497 53.126008,48.806563 52.886469,49.880449 c -0.08291,0.371709 0.62218,1.079654 1.682641,1.689455 3.915865,2.251751 10.604909,6.655419 13.868263,9.130036 3.999842,3.033107 11.910593,9.903979 11.910593,10.344933 0,0.526667 -4.092457,-0.306121 -11.551593,-2.350667 -11.190714,-3.067369 -15.268218,-3.721577 -23.152693,-3.714679 -8.395289,0.0073 -12.329242,0.97997 -17.352143,4.290122 -13.45901,8.869648 -14.537964,30.033318 -3.227191,63.301291 2.22602,6.54731 7.907225,20.44589 8.359177,20.45 0.275146,0.003 0.494789,-2.52707 0.646486,-7.44542 0.248324,-8.05121 1.19565,-14.96405 3.297318,-24.06123 2.533164,-10.96494 8.084318,-27.367934 13.007804,-38.436501 3.186581,-7.163805 3.178192,-6.422019 -0.165604,14.645932 -1.97281,12.429909 -2.455407,18.249029 -2.471149,29.796899 -0.01486,10.89972 0.204775,13.41104 1.744649,19.94877 2.329582,9.89052 7.301431,16.53798 14.133075,18.89619 2.967353,1.02429 9.19398,1.03967 13.504189,0.0334 6.742699,-1.57423 22.803812,-9.74443 22.393717,-11.39156 -0.0673,-0.27031 -2.582387,-1.81696 -5.58908,-3.43701 -8.687701,-4.68105 -23.189264,-14.96674 -26.403982,-18.72785 l -0.941528,-1.10157 1.808011,0.28205 c 0.994406,0.15512 5.323011,1.40649 9.619122,2.78081 14.54855,4.65408 18.171413,5.34458 27.992409,5.33526 6.78585,-0.006 8.14885,-0.14802 11.12801,-1.15596 11.47945,-3.88385 16.90727,-13.17986 16.86622,-28.88611 -0.0307,-11.749725 -3.29425,-26.311171 -9.78353,-43.652581 -2.75961,-7.37456 -5.06618,-14.444864 -4.91305,-15.059907 0.17537,-0.704364 7.40089,8.139633 11.51491,14.094194 11.57666,16.755836 18.26424,32.077623 20.29591,46.499594 1.19476,8.48113 0.2858,18.0451 -2.38912,25.13792 -3.28058,8.6988 -8.99152,16.1262 -14.82507,19.28084 -6.86893,3.71455 -15.28439,4.1703 -25.52829,1.38254 -1.15183,-0.31346 -1.43711,-0.0435 -5.28109,4.99744 -15.720366,20.6155 -31.573095,30.45987 -44.421587,27.58533 z M 331.95404,161.07351 c -15.81946,-2.59851 -28.58118,-11.96954 -35.72061,-26.22993 -8.60544,-17.1886 -12.43966,-37.656804 -11.39996,-60.85637 0.80603,-17.985765 4.31631,-32.441184 11.248,-46.319617 6.63511,-13.284635 16.71192,-21.6933798 30.46428,-25.4213905 20.45233,-5.5442469 41.36413,0.4440987 52.88685,15.1447835 5.53495,7.061515 9.48174,17.397541 9.48174,24.831272 0,1.920965 -0.15878,2.699116 -0.59669,2.924087 -0.85701,0.440298 -26.66959,0.36433 -27.16825,-0.07996 -0.22905,-0.204072 -0.50857,-2.216932 -0.62116,-4.473021 -0.12291,-2.462786 -0.50705,-5.017038 -0.96129,-6.391854 -3.16837,-9.589494 -16.09644,-13.984031 -25.76208,-8.757095 -3.36455,1.819469 -6.12289,4.220118 -9.18525,7.994154 -7.82837,9.647638 -10.77216,22.710854 -10.77216,47.801952 0,29.613149 4.83129,44.566149 17.38117,53.795309 6.6154,4.86496 15.24218,5.08369 22.10803,0.56057 4.63814,-3.05554 6.72096,-7.38314 7.23071,-15.02368 l 0.24404,-3.65778 h 13.95716 13.95716 l 0.11573,2.42353 c 0.2997,6.27679 -4.59866,19.0457 -9.6183,25.07269 -6.60355,7.92872 -15.58207,13.70855 -24.8245,15.98051 -3.98757,0.98021 -18.03094,1.40684 -22.44462,0.68184 z m 67.77853,-3.83404 c -0.14082,-0.18855 -0.25606,-34.62464 -0.25606,-76.524646 V 4.5329957 l 14.05146,0.1324048 14.05147,0.1324049 0.1075,5.1765796 c 0.0591,2.847119 0.23622,5.17658 0.39356,5.17658 0.1573,0 1.29718,-1.154454 2.53303,-2.565454 3.93166,-4.4888638 13.00736,-9.874232 19.59914,-11.62976089 3.90883,-1.04100602 13.91121,-0.91240433 17.72936,0.22794829 10.78598,3.2214016 16.63384,7.7361295 22.53236,17.3956096 l 2.24771,3.680859 4.03765,-5.195956 c 5.74598,-7.3942786 12.37755,-12.3433385 20.63476,-15.3994586 3.40045,-1.2585554 4.31095,-1.38193107 10.14836,-1.37515221 5.77023,0.006701 6.82282,0.14820091 10.50574,1.41225891 12.1625,4.1744768 20.36063,12.8729429 24.12763,25.6001119 1.18387,3.99984 2.72183,13.956462 3.26054,21.108368 0.24595,3.264909 0.39397,24.755593 0.39397,57.194891 v 51.9648 h -14.10541 c -12.51432,0 -14.13124,-0.0901 -14.33438,-0.79885 -0.12595,-0.43937 -0.22912,-23.4499 -0.22927,-51.13451 -3.4e-4,-51.808071 -0.16205,-58.774683 -1.5027,-64.729066 -2.91508,-12.947294 -9.40855,-18.06325 -17.9394,-14.133747 -3.17536,1.462657 -7.19921,4.793963 -9.48751,7.854631 -3.46756,4.637963 -7.59944,13.974033 -9.1362,20.643453 -2.03462,8.829957 -2.05374,9.311444 -2.27717,57.350229 l -0.20792,44.69535 h -13.95716 -13.95716 l -0.21615,-53.02838 c -0.24651,-60.474698 -0.28023,-61.227698 -3.07627,-68.671631 -1.83023,-4.872754 -2.98264,-6.476835 -6.02406,-8.385088 -2.42364,-1.520666 -3.12063,-1.728297 -5.80142,-1.728297 -2.82086,0 -3.28439,0.157616 -6.24968,2.12523 -1.76154,1.168877 -4.18824,3.100625 -5.39259,4.292774 -4.24381,4.200778 -9.61939,14.854381 -11.66905,23.126376 -2.2654,9.142658 -2.25442,8.888182 -2.48038,57.573666 l -0.20743,44.69535 -13.79541,0.13238 c -7.58749,0.0728 -13.91065,-0.0219 -14.05146,-0.21043 z"
       id="path4097"
       inkscape:connector-curvature="0" />
    <path
       style="fill:#5d5d5d;stroke-width:0.43647277"
       d="m 209.33629,220.19152 c -8.44806,-1.29647 -17.09656,-4.62249 -23.89595,-9.18982 -7.00121,-4.70291 -10.92376,-8.75402 -13.70256,-14.15169 -3.64282,-7.07598 -5.38354,-13.03427 -5.38354,-18.42725 v -2.67157 h 14.09187 14.09186 l 0.21597,3.914 c 0.41951,7.60309 2.45496,11.92054 7.09466,15.04873 7.13128,4.80806 16.76169,6.26731 24.68613,3.74057 5.6439,-1.79958 11.55011,-7.52409 15.06393,-14.60049 2.2538,-4.53889 3.07667,-7.26083 3.94942,-13.06416 1.25536,-8.34748 2.06508,-27.86574 1.15603,-27.86574 -0.20643,0 -1.40821,1.11432 -2.67063,2.47627 -9.395,10.13566 -24.57731,14.35162 -39.30224,10.91377 -13.733,-3.20627 -24.07917,-13.12217 -31.94969,-30.62101 -3.56687,-7.93035 -6.26262,-17.89304 -7.79891,-28.822378 -0.91835,-6.533262 -1.10696,-22.983917 -0.35212,-30.71154 1.9412,-19.872775 6.76781,-35.25329 14.43435,-45.996661 9.68674,-13.574343 21.29589,-19.80000101 36.89387,-19.7851387 11.77711,0.0112217 19.08935,2.9069234 27.22352,10.7807157 1.69477,1.640525 3.25858,2.982772 3.47513,2.982772 0.23729,0 0.43682,-1.856063 0.50219,-4.6715472 l 0.10846,-4.6715474 h 13.95716 13.95715 l 0.11104,65.4016636 c 0.11206,66.004911 -0.0484,77.349841 -1.27141,89.869421 -1.17892,12.06856 -3.13708,21.84405 -5.6705,28.3081 -3.4464,8.79354 -11.45596,18.19168 -20.68411,24.27005 -8.26652,5.44495 -15.73711,7.56309 -27.55921,7.81386 -4.3569,0.0924 -9.20424,-0.0288 -10.77187,-0.26938 z m 13.43744,-84.87807 c 4.11534,-0.99323 7.46642,-3.65106 11.71346,-9.29025 6.47535,-8.59794 10.0491,-18.91842 11.89806,-34.359865 0.75361,-6.293725 0.64413,-25.169044 -0.17869,-30.806961 -1.50077,-10.283192 -3.87788,-17.457023 -7.9398,-23.96134 -8.9518,-14.334458 -19.38392,-17.476159 -29.16572,-8.78345 -11.4084,10.138204 -16.53134,28.056824 -15.85666,55.462273 0.45953,18.666683 3.84697,33.252583 9.7131,41.823533 3.63137,5.30577 11.16331,9.96741 16.79849,10.39686 0.4287,0.0327 1.7867,-0.18369 3.01776,-0.4808 z M 56.394465,189.44239 C 45.74539,185.56781 37.599484,174.82535 35.098166,161.35777 34.793552,159.71767 33.637775,157.86504 28.954343,151.50965 17.878038,136.47916 10.726575,123.75257 5.8251834,110.34953 3.599881,104.26435 1.6779455,96.895105 1.2869018,92.948476 1.1491106,91.557809 0.90966791,90.524831 0.75480705,90.652968 0.30001268,91.029283 -0.05591207,84.291416 0.22491051,80.621711 0.36708423,78.763829 0.57410293,77.365168 0.68495204,77.513572 0.79580119,77.661981 1.1894981,76.185994 1.5598341,74.233605 2.9383578,66.966112 7.3494685,58.145079 12.002066,53.351965 c 2.958104,-3.047444 6.92881,-5.674256 10.537243,-6.97089 4.404186,-1.582576 12.366095,-1.554998 18.322042,0.06346 l 4.459576,1.211838 2.669752,-4.005675 C 58.543686,27.817062 69.277345,17.465835 79.450808,13.31146 c 2.927239,-1.195349 4.014301,-1.372376 8.630179,-1.40541 6.054321,-0.04333 8.725166,0.791847 13.802093,4.315924 14.99628,10.409442 19.48019,32.167015 13.33622,64.71216 -2.09154,11.079022 -6.61201,26.977036 -10.56346,37.150536 l -1.70341,4.38563 0.21358,-3.83802 c 0.11747,-2.11091 0.53486,-6.76983 0.92752,-10.35316 1.72142,-15.708944 2.19485,-31.956267 1.19507,-41.012332 -1.22065,-11.056795 -3.8269,-19.321656 -7.74859,-24.572106 -3.927081,-5.257671 -8.046789,-7.332225 -14.5515,-7.327668 -4.444469,0.0031 -7.499951,0.733785 -13.014107,3.112124 -4.528095,1.953036 -17.304044,10.411386 -17.461941,11.560723 -0.07733,0.562881 0.647744,1.222978 2.451933,2.232194 8.594294,4.807426 25.573698,17.866992 23.823244,18.323445 -0.339502,0.08853 -4.413483,-0.861231 -9.053292,-2.110575 -21.249283,-5.721716 -32.108942,-5.638063 -41.437092,0.319211 -12.513886,7.99179 -14.655403,26.532935 -6.357329,55.041424 2.73613,9.40013 10.48742,29.59643 11.538393,30.06375 0.352614,0.15679 0.471526,-0.877 0.471526,-4.09933 0,-15.35039 4.204488,-34.81627 11.905343,-55.119144 2.812673,-7.415462 6.561751,-16.096541 6.808755,-15.765841 0.16457,0.220326 -0.744868,6.670218 -2.650627,18.798726 -4.683441,29.806099 -3.196042,50.795939 4.366542,61.619569 6.569276,9.402 17.178761,10.72772 31.945677,3.99179 4.416961,-2.01479 13.140687,-7.11667 13.500088,-7.89522 0.384047,-0.83196 -0.665014,-1.68262 -4.200226,-3.40586 -6.716709,-3.27406 -21.441451,-13.41848 -26.971266,-18.5815 l -1.320272,-1.2327 1.508882,0.3287 c 0.829885,0.18078 4.988741,1.44222 9.241902,2.80319 14.167656,4.53352 21.729919,5.86975 30.545567,5.39731 9.33566,-0.5003 15.36206,-3.28738 19.84718,-9.17889 4.11976,-5.41157 5.79789,-11.56379 5.80753,-21.29105 0.0121,-12.2062 -2.59783,-23.863584 -9.9909,-44.62488 -2.12662,-5.972006 -3.98869,-11.389041 -4.13794,-12.037861 -0.24249,-1.054209 -0.19244,-1.123126 0.47063,-0.648022 1.29593,0.928557 11.49246,14.7601 14.75041,20.008849 6.17776,9.952759 11.78079,22.532459 13.94645,31.311994 2.77477,11.24889 2.58303,22.3482 -0.54389,31.48384 -3.70579,10.82689 -10.85078,19.14224 -19.01583,22.13069 -3.51218,1.28546 -14.74896,1.29946 -19.16569,0.0239 l -3.13382,-0.90507 -4.41059,5.64064 c -10.531991,13.46923 -20.715515,22.27674 -30.061583,25.99963 -4.659368,1.856 -12.612628,2.2296 -16.597702,0.77966 z M 331.95404,161.07351 c -15.81946,-2.59851 -28.58118,-11.96954 -35.72061,-26.22993 -8.60544,-17.1886 -12.43966,-37.656804 -11.39996,-60.85637 0.80603,-17.985765 4.31631,-32.441184 11.248,-46.319617 6.63511,-13.284635 16.71192,-21.6933798 30.46428,-25.4213905 20.45233,-5.5442469 41.36413,0.4440987 52.88685,15.1447835 5.53495,7.061515 9.48174,17.397541 9.48174,24.831272 0,1.920965 -0.15878,2.699116 -0.59669,2.924087 -0.85701,0.440298 -26.66959,0.36433 -27.16825,-0.07996 -0.22905,-0.204072 -0.50857,-2.216932 -0.62116,-4.473021 -0.12291,-2.462786 -0.50705,-5.017038 -0.96129,-6.391854 -3.16837,-9.589494 -16.09644,-13.984031 -25.76208,-8.757095 -3.36455,1.819469 -6.12289,4.220118 -9.18525,7.994154 -7.82837,9.647638 -10.77216,22.710854 -10.77216,47.801952 0,29.613149 4.83129,44.566149 17.38117,53.795309 6.6154,4.86496 15.24218,5.08369 22.10803,0.56057 4.63814,-3.05554 6.72096,-7.38314 7.23071,-15.02368 l 0.24404,-3.65778 h 13.95716 13.95716 l 0.11573,2.42353 c 0.2997,6.27679 -4.59866,19.0457 -9.6183,25.07269 -6.60355,7.92872 -15.58207,13.70855 -24.8245,15.98051 -3.98757,0.98021 -18.03094,1.40684 -22.44462,0.68184 z m 67.77853,-3.83404 c -0.14082,-0.18855 -0.25606,-34.62464 -0.25606,-76.524646 V 4.5329957 l 14.05146,0.1324048 14.05147,0.1324049 0.1075,5.1765796 c 0.0591,2.847119 0.23622,5.17658 0.39356,5.17658 0.1573,0 1.29718,-1.154454 2.53303,-2.565454 3.93166,-4.4888638 13.00736,-9.874232 19.59914,-11.62976089 3.90883,-1.04100602 13.91121,-0.91240433 17.72936,0.22794829 10.78598,3.2214016 16.63384,7.7361295 22.53236,17.3956096 l 2.24771,3.680859 4.03765,-5.195956 c 5.74598,-7.3942786 12.37755,-12.3433385 20.63476,-15.3994586 3.40045,-1.2585554 4.31095,-1.38193107 10.14836,-1.37515221 5.77023,0.006701 6.82282,0.14820091 10.50574,1.41225891 12.1625,4.1744768 20.36063,12.8729429 24.12763,25.6001119 1.18387,3.99984 2.72183,13.956462 3.26054,21.108368 0.24595,3.264909 0.39397,24.755593 0.39397,57.194891 v 51.9648 h -14.10541 c -12.51432,0 -14.13124,-0.0901 -14.33438,-0.79885 -0.12595,-0.43937 -0.22912,-23.4499 -0.22927,-51.13451 -3.4e-4,-51.808071 -0.16205,-58.774683 -1.5027,-64.729066 -2.91508,-12.947294 -9.40855,-18.06325 -17.9394,-14.133747 -3.17536,1.462657 -7.19921,4.793963 -9.48751,7.854631 -3.46756,4.637963 -7.59944,13.974033 -9.1362,20.643453 -2.03462,8.829957 -2.05374,9.311444 -2.27717,57.350229 l -0.20792,44.69535 h -13.95716 -13.95716 l -0.21615,-53.02838 c -0.24651,-60.474698 -0.28023,-61.227698 -3.07627,-68.671631 -1.83023,-4.872754 -2.98264,-6.476835 -6.02406,-8.385088 -2.42364,-1.520666 -3.12063,-1.728297 -5.80142,-1.728297 -2.82086,0 -3.28439,0.157616 -6.24968,2.12523 -1.76154,1.168877 -4.18824,3.100625 -5.39259,4.292774 -4.24381,4.200778 -9.61939,14.854381 -11.66905,23.126376 -2.2654,9.142658 -2.25442,8.888182 -2.48038,57.573666 l -0.20743,44.69535 -13.79541,0.13238 c -7.58749,0.0728 -13.91065,-0.0219 -14.05146,-0.21043 z"
       id="path4095"
       inkscape:connector-curvature="0" />
    <path
       style="fill:#525252;stroke-width:0.43647277"
       d="m 211.80931,220.36079 c -1.24483,-0.12223 -2.42458,-0.43702 -2.62168,-0.69954 -0.1971,-0.26251 -0.90992,-0.4773 -1.58404,-0.4773 -0.67412,0 -3.0591,-0.47365 -5.29995,-1.05255 -11.08829,-2.86456 -22.82028,-10.42296 -28.15695,-18.14027 -4.02763,-5.82432 -6.96755,-13.8823 -7.31611,-20.0526 l -0.20802,-3.68231 h 13.77339 13.77339 l 0.20789,3.66148 c 0.26804,4.72106 0.75885,6.82578 2.28159,9.7841 1.6036,3.11541 3.96818,5.25833 7.90869,7.16728 4.84449,2.34688 8.55377,3.22638 13.65455,3.2376 5.76401,0.0127 9.22283,-0.97001 13.60312,-3.8648 5.16482,-3.41326 9.87959,-10.09497 12.43872,-17.62798 1.7703,-5.21106 3.19275,-19.13164 3.19275,-31.24546 0,-4.0973 -0.099,-4.94937 -0.57486,-4.94937 -0.31617,0 -1.80148,1.25284 -3.30068,2.78411 -8.19152,8.36668 -19.29806,12.52537 -31.20597,11.68461 -16.83339,-1.18851 -28.46363,-9.74467 -37.37018,-27.49258 -6.9212,-13.79172 -10.04218,-27.66186 -10.43105,-46.357208 -0.29793,-14.323292 0.91514,-25.59916 4.08366,-37.958902 2.88223,-11.242985 5.90116,-18.105556 11.05303,-25.125526 7.43218,-10.1271458 16.09446,-16.1234852 25.91583,-17.9398714 1.74082,-0.3219499 3.45987,-0.7931075 3.82013,-1.04701692 0.84721,-0.59710373 12.16492,-0.60344323 13.02435,-0.007296 0.36026,0.24989692 2.01301,0.72248382 3.67278,1.05019302 6.33867,1.2515228 11.82025,4.4833768 17.80657,10.4984813 1.49476,1.501948 2.89519,2.583988 3.11206,2.404535 0.22923,-0.189673 0.39433,-2.32252 0.39433,-5.0942778 v -4.768 h 13.78762 13.78762 l -0.1372,71.5883078 c -0.12263,63.982361 -0.20659,72.365371 -0.79023,78.902191 -1.33263,14.92569 -3.74749,27.34587 -6.60036,33.94721 -1.87714,4.34357 -8.77702,13.51041 -13.17494,17.50357 -6.67597,6.06155 -13.85194,9.85842 -21.77272,11.52014 -2.07471,0.43525 -4.0764,0.99972 -4.44819,1.25436 -0.7451,0.51032 -12.7115,0.94693 -16.29894,0.59469 z m 11.607,-84.74414 c 6.76307,-1.9187 13.88151,-10.29377 18.07337,-21.26384 2.52989,-6.62073 4.16956,-13.67556 5.27345,-22.689475 0.75945,-6.201289 0.63875,-25.030908 -0.19909,-31.059477 -1.71328,-12.327782 -5.15098,-20.989023 -11.38128,-28.674995 -8.88397,-10.959657 -18.00621,-12.144866 -27.04103,-3.513311 -3.09324,2.955177 -7.41019,9.070651 -9.04144,12.808304 -4.43788,10.168398 -6.12793,20.712797 -6.14169,38.318708 -0.0119,15.225775 1.10056,24.346006 4.17751,34.247916 3.6321,11.68847 10.25558,19.22072 19.19271,21.82603 2.97834,0.86823 4.02756,0.86825 7.08749,1.4e-4 z M 56.394465,189.44239 C 45.74539,185.56781 37.599484,174.82535 35.098166,161.35777 34.793552,159.71767 33.637775,157.86504 28.954343,151.50965 17.878038,136.47916 10.726575,123.75257 5.8251834,110.34953 3.599881,104.26435 1.6779455,96.895105 1.2869018,92.948476 1.1491106,91.557809 0.90966791,90.524831 0.75480705,90.652968 0.30001268,91.029283 -0.05591207,84.291416 0.22491051,80.621711 0.36708423,78.763829 0.57410293,77.365168 0.68495204,77.513572 0.79580119,77.661981 1.1894981,76.185994 1.5598341,74.233605 2.9383578,66.966112 7.3494685,58.145079 12.002066,53.351965 c 2.958104,-3.047444 6.92881,-5.674256 10.537243,-6.97089 4.404186,-1.582576 12.366095,-1.554998 18.322042,0.06346 l 4.459576,1.211838 2.669752,-4.005675 C 58.543686,27.817062 69.277345,17.465835 79.450808,13.31146 c 2.927239,-1.195349 4.014301,-1.372376 8.630179,-1.40541 6.054321,-0.04333 8.725166,0.791847 13.802093,4.315924 14.99628,10.409442 19.48019,32.167015 13.33622,64.71216 -2.09154,11.079022 -6.61201,26.977036 -10.56346,37.150536 l -1.70341,4.38563 0.21358,-3.83802 c 0.11747,-2.11091 0.53486,-6.76983 0.92752,-10.35316 1.72142,-15.708944 2.19485,-31.956267 1.19507,-41.012332 -1.22065,-11.056795 -3.8269,-19.321656 -7.74859,-24.572106 -3.927081,-5.257671 -8.046789,-7.332225 -14.5515,-7.327668 -4.444469,0.0031 -7.499951,0.733785 -13.014107,3.112124 -4.528095,1.953036 -17.304044,10.411386 -17.461941,11.560723 -0.07733,0.562881 0.647744,1.222978 2.451933,2.232194 8.594294,4.807426 25.573698,17.866992 23.823244,18.323445 -0.339502,0.08853 -4.413483,-0.861231 -9.053292,-2.110575 -21.249283,-5.721716 -32.108942,-5.638063 -41.437092,0.319211 -12.513886,7.99179 -14.655403,26.532935 -6.357329,55.041424 2.73613,9.40013 10.48742,29.59643 11.538393,30.06375 0.352614,0.15679 0.471526,-0.877 0.471526,-4.09933 0,-15.35039 4.204488,-34.81627 11.905343,-55.119144 2.812673,-7.415462 6.561751,-16.096541 6.808755,-15.765841 0.16457,0.220326 -0.744868,6.670218 -2.650627,18.798726 -4.683441,29.806099 -3.196042,50.795939 4.366542,61.619569 6.569276,9.402 17.178761,10.72772 31.945677,3.99179 4.416961,-2.01479 13.140687,-7.11667 13.500088,-7.89522 0.384047,-0.83196 -0.665014,-1.68262 -4.200226,-3.40586 -6.716709,-3.27406 -21.441451,-13.41848 -26.971266,-18.5815 l -1.320272,-1.2327 1.508882,0.3287 c 0.829885,0.18078 4.988741,1.44222 9.241902,2.80319 14.167656,4.53352 21.729919,5.86975 30.545567,5.39731 9.33566,-0.5003 15.36206,-3.28738 19.84718,-9.17889 4.11976,-5.41157 5.79789,-11.56379 5.80753,-21.29105 0.0121,-12.2062 -2.59783,-23.863584 -9.9909,-44.62488 -2.12662,-5.972006 -3.98869,-11.389041 -4.13794,-12.037861 -0.24249,-1.054209 -0.19244,-1.123126 0.47063,-0.648022 1.29593,0.928557 11.49246,14.7601 14.75041,20.008849 6.17776,9.952759 11.78079,22.532459 13.94645,31.311994 2.77477,11.24889 2.58303,22.3482 -0.54389,31.48384 -3.70579,10.82689 -10.85078,19.14224 -19.01583,22.13069 -3.51218,1.28546 -14.74896,1.29946 -19.16569,0.0239 l -3.13382,-0.90507 -4.41059,5.64064 c -10.531991,13.46923 -20.715515,22.27674 -30.061583,25.99963 -4.659368,1.856 -12.612628,2.2296 -16.597702,0.77966 z M 333.27431,160.75 c -9.35876,-1.1503 -18.99364,-5.53117 -26.03814,-11.83924 -11.18229,-10.0133 -19.4931,-30.9798 -21.6911,-54.722264 -0.54509,-5.887978 -0.54498,-20.451342 2e-4,-26.261672 1.63749,-17.452004 6.46209,-33.403872 13.65081,-45.134514 6.7393,-10.997278 19.88511,-19.5801956 32.29562,-21.0858527 1.51064,-0.1832731 2.8368,-0.5285691 2.94702,-0.76732451 0.28705,-0.62182845 13.63601,-0.55382833 13.92441,0.0709315 0.12823,0.2777677 0.85968,0.5057582 1.62545,0.5066457 2.0443,0.00237 7.52625,1.3671338 11.29879,2.8129016 6.70992,2.5714694 15.22362,9.2110424 19.18058,14.9583194 4.76328,6.918433 8.38188,17.485977 8.00839,23.387286 l -0.12784,2.020128 h -13.57993 -13.57994 l -0.2618,-4.229851 c -0.45259,-7.312624 -2.67844,-11.589311 -7.69286,-14.780823 -3.0022,-1.910801 -6.74224,-2.938592 -10.73281,-2.949455 -7.26756,-0.01978 -13.74956,4.17627 -19.97763,12.932303 -4.34291,6.105689 -6.43773,12.41487 -8.02804,24.178791 -0.72045,5.329412 -0.81904,7.857356 -0.81741,20.958834 0.002,16.186306 0.35198,20.792696 2.24459,29.544386 1.51866,7.02252 3.30267,11.38534 6.53901,15.99124 4.5701,6.50406 9.02487,10.2634 14.30413,12.07109 6.43949,2.20496 14.14673,0.45466 19.41312,-4.4087 2.72906,-2.52022 4.82109,-8.77606 4.82109,-14.41665 v -2.41905 h 13.76855 13.76854 v 2.4335 c 0,4.45766 -1.71906,10.29948 -5.09198,17.30398 -2.13884,4.44168 -5.27471,8.4649 -9.63592,12.3626 -7.19545,6.43071 -14.63897,10.0354 -23.29185,11.27962 -3.58844,0.51599 -13.72515,0.63523 -17.24305,0.20284 z m 218.22206,-3.67552 -13.76855,-0.262 -0.21939,-54.54347 c -0.18672,-46.427711 -0.30619,-55.10937 -0.80291,-58.346694 -0.67576,-4.403978 -3.11788,-11.250149 -5.01704,-14.064564 -1.52959,-2.266744 -5.03747,-4.525991 -7.67734,-4.944577 -4.64373,-0.736332 -12.31285,4.002092 -16.73463,10.339676 -3.31837,4.756054 -7.05357,13.493917 -8.55759,20.01909 -2.03329,8.821417 -2.05381,9.335317 -2.27735,57.097709 l -0.208,44.44283 -13.67425,0.13256 -13.67424,0.13256 -0.004,-47.35307 c -0.005,-60.575917 -0.25889,-66.545109 -3.16737,-74.277469 -1.86347,-4.954145 -3.14594,-6.719121 -6.33738,-8.721532 -2.41316,-1.514369 -3.12184,-1.726438 -5.76891,-1.726438 -2.6978,0 -3.32539,0.196664 -5.919,1.854848 -7.20416,4.60584 -11.12024,9.952667 -15.58249,21.275654 -1.81115,4.595824 -2.91173,9.005017 -3.86421,15.481156 -0.55512,3.774368 -0.66017,9.894059 -0.83724,48.758901 l -0.20249,44.44283 -13.67425,0.13256 -13.67424,0.13256 V 81.063958 5.0503215 h 13.76855 13.76855 v 5.3028375 c 0,4.79738 0.0656,5.302838 0.68869,5.302838 0.37877,0 1.1002,-0.600476 1.60319,-1.334391 2.72726,-3.979461 11.81914,-10.0363429 17.83294,-11.880003 1.89829,-0.5819707 3.85912,-1.3125942 4.35743,-1.62360778 1.22306,-0.76342075 12.10663,-0.73516444 13.29215,0.0345093 0.4899,0.31805048 1.99407,0.84665778 3.34263,1.17468278 9.07487,2.2073702 16.30788,7.7916399 21.4809,16.5843527 1.33151,2.263199 2.54446,4.114907 2.69543,4.114907 0.151,0 1.26599,-1.395434 2.47777,-3.100963 1.21182,-1.705529 3.45866,-4.447164 4.99304,-6.092522 3.72958,-3.9993653 12.26823,-9.6240294 16.8257,-11.0836066 1.86724,-0.5980036 3.80272,-1.3369304 4.30106,-1.64205944 1.19127,-0.72939125 12.44251,-0.69869446 12.79506,0.0349088 0.14082,0.29298454 1.10476,0.69993874 2.14212,0.90434284 2.77412,0.5466204 7.55139,2.6575387 10.56217,4.6670771 8.00802,5.3449043 13.26119,13.3893673 15.76443,24.1408203 0.94482,4.057979 2.15355,12.413412 2.15355,14.886437 0,0.728802 0.21219,1.609079 0.47152,1.956171 0.36998,0.495172 0.49646,12.426157 0.58726,55.402027 0.0637,30.12402 -0.0211,54.7184 -0.18861,54.65417 -0.16737,-0.0642 -6.50019,-0.23468 -14.07289,-0.37877 z"
       id="path4093"
       inkscape:connector-curvature="0" />
    <path
       style="fill:#4d4d4d;stroke-width:0.43647277"
       d="m 211.80931,220.36079 c -1.24483,-0.12223 -2.42458,-0.43702 -2.62168,-0.69954 -0.1971,-0.26251 -0.90992,-0.4773 -1.58404,-0.4773 -0.67412,0 -3.0591,-0.47365 -5.29995,-1.05255 -11.08829,-2.86456 -22.82028,-10.42296 -28.15695,-18.14027 -4.02763,-5.82432 -6.96755,-13.8823 -7.31611,-20.0526 l -0.20802,-3.68231 h 13.77339 13.77339 l 0.20789,3.66148 c 0.26804,4.72106 0.75885,6.82578 2.28159,9.7841 1.6036,3.11541 3.96818,5.25833 7.90869,7.16728 4.84449,2.34688 8.55377,3.22638 13.65455,3.2376 5.76401,0.0127 9.22283,-0.97001 13.60312,-3.8648 5.16482,-3.41326 9.87959,-10.09497 12.43872,-17.62798 1.7703,-5.21106 3.19275,-19.13164 3.19275,-31.24546 0,-4.0973 -0.099,-4.94937 -0.57486,-4.94937 -0.31617,0 -1.80148,1.25284 -3.30068,2.78411 -8.19152,8.36668 -19.29806,12.52537 -31.20597,11.68461 -16.83339,-1.18851 -28.46363,-9.74467 -37.37018,-27.49258 -6.9212,-13.79172 -10.04218,-27.66186 -10.43105,-46.357208 -0.29793,-14.323292 0.91514,-25.59916 4.08366,-37.958902 2.88223,-11.242985 5.90116,-18.105556 11.05303,-25.125526 7.43218,-10.1271458 16.09446,-16.1234852 25.91583,-17.9398714 1.74082,-0.3219499 3.45987,-0.7931075 3.82013,-1.04701692 0.84721,-0.59710373 12.16492,-0.60344323 13.02435,-0.007296 0.36026,0.24989692 2.01301,0.72248382 3.67278,1.05019302 6.33867,1.2515228 11.82025,4.4833768 17.80657,10.4984813 1.49476,1.501948 2.89519,2.583988 3.11206,2.404535 0.22923,-0.189673 0.39433,-2.32252 0.39433,-5.0942778 v -4.768 h 13.78762 13.78762 l -0.1372,71.5883078 c -0.12263,63.982361 -0.20659,72.365371 -0.79023,78.902191 -1.33263,14.92569 -3.74749,27.34587 -6.60036,33.94721 -1.87714,4.34357 -8.77702,13.51041 -13.17494,17.50357 -6.67597,6.06155 -13.85194,9.85842 -21.77272,11.52014 -2.07471,0.43525 -4.0764,0.99972 -4.44819,1.25436 -0.7451,0.51032 -12.7115,0.94693 -16.29894,0.59469 z m 11.607,-84.74414 c 6.76307,-1.9187 13.88151,-10.29377 18.07337,-21.26384 2.52989,-6.62073 4.16956,-13.67556 5.27345,-22.689475 0.75945,-6.201289 0.63875,-25.030908 -0.19909,-31.059477 -1.71328,-12.327782 -5.15098,-20.989023 -11.38128,-28.674995 -8.88397,-10.959657 -18.00621,-12.144866 -27.04103,-3.513311 -3.09324,2.955177 -7.41019,9.070651 -9.04144,12.808304 -4.43788,10.168398 -6.12793,20.712797 -6.14169,38.318708 -0.0119,15.225775 1.10056,24.346006 4.17751,34.247916 3.6321,11.68847 10.25558,19.22072 19.19271,21.82603 2.97834,0.86823 4.02756,0.86825 7.08749,1.4e-4 z m 109.858,25.13335 c -9.35876,-1.1503 -18.99364,-5.53117 -26.03814,-11.83924 -11.18229,-10.0133 -19.4931,-30.9798 -21.6911,-54.722264 -0.54509,-5.887978 -0.54498,-20.451342 2e-4,-26.261672 1.63749,-17.452004 6.46209,-33.403872 13.65081,-45.134514 6.7393,-10.997278 19.88511,-19.5801956 32.29562,-21.0858527 1.51064,-0.1832731 2.8368,-0.5285691 2.94702,-0.76732451 0.28705,-0.62182845 13.63601,-0.55382833 13.92441,0.0709315 0.12823,0.2777677 0.85968,0.5057582 1.62545,0.5066457 2.0443,0.00237 7.52625,1.3671338 11.29879,2.8129016 6.70992,2.5714694 15.22362,9.2110424 19.18058,14.9583194 4.76328,6.918433 8.38188,17.485977 8.00839,23.387286 l -0.12784,2.020128 h -13.57993 -13.57994 l -0.2618,-4.229851 c -0.45259,-7.312624 -2.67844,-11.589311 -7.69286,-14.780823 -3.0022,-1.910801 -6.74224,-2.938592 -10.73281,-2.949455 -7.26756,-0.01978 -13.74956,4.17627 -19.97763,12.932303 -4.34291,6.105689 -6.43773,12.41487 -8.02804,24.178791 -0.72045,5.329412 -0.81904,7.857356 -0.81741,20.958834 0.002,16.186306 0.35198,20.792696 2.24459,29.544386 1.51866,7.02252 3.30267,11.38534 6.53901,15.99124 4.5701,6.50406 9.02487,10.2634 14.30413,12.07109 6.43949,2.20496 14.14673,0.45466 19.41312,-4.4087 2.72906,-2.52022 4.82109,-8.77606 4.82109,-14.41665 v -2.41905 h 13.76855 13.76854 v 2.4335 c 0,4.45766 -1.71906,10.29948 -5.09198,17.30398 -2.13884,4.44168 -5.27471,8.4649 -9.63592,12.3626 -7.19545,6.43071 -14.63897,10.0354 -23.29185,11.27962 -3.58844,0.51599 -13.72515,0.63523 -17.24305,0.20284 z m -221.22867,-2.45315 c -1.75737,-0.4111 -3.36256,-0.9715 -3.56709,-1.24533 -0.24435,-0.32713 0.21484,-1.31943 1.33902,-2.89361 4.00405,-5.60682 5.92211,-9.21368 4.89964,-9.21368 -0.18427,0 -3.53077,2.16178 -7.43667,4.80397 -6.87451,4.65034 -7.13825,4.78177 -8.246722,4.10994 -0.629804,-0.38171 -2.757716,-1.51646 -4.728693,-2.52165 -6.627519,-3.38002 -22.049636,-14.2033 -26.405435,-18.53141 -0.84104,-0.83569 1.244839,-0.31414 10.184953,2.54661 14.167656,4.53352 21.729919,5.86975 30.545567,5.39731 9.33566,-0.5003 15.36206,-3.28738 19.84718,-9.17889 4.11976,-5.41157 5.79789,-11.56379 5.80753,-21.29105 0.0121,-12.2062 -2.59783,-23.863584 -9.9909,-44.62488 -2.12662,-5.972006 -3.98869,-11.389041 -4.13794,-12.037861 -0.24249,-1.054209 -0.19244,-1.123126 0.47063,-0.648022 1.29593,0.928557 11.49246,14.7601 14.75041,20.008849 6.17776,9.952759 11.78079,22.532459 13.94645,31.311994 1.97548,8.00857 2.48618,17.25502 1.33341,24.14184 -2.28801,13.66884 -10.80982,25.77122 -20.70452,29.40388 -3.22765,1.18497 -13.66509,1.45426 -17.90682,0.46199 z M 28.246102,150.61631 C 17.587908,135.93167 10.573681,123.33448 5.8251834,110.34953 3.599881,104.26435 1.6779455,96.895105 1.2869018,92.948476 1.1491106,91.557809 0.90966791,90.524831 0.75480705,90.652968 0.30001268,91.029283 -0.05591207,84.291416 0.22491051,80.621711 0.36708423,78.763829 0.57410293,77.365168 0.68495204,77.513572 0.79580119,77.661981 1.1894981,76.185994 1.5598341,74.233605 2.9383578,66.966112 7.3494685,58.145079 12.002066,53.351965 c 2.954464,-3.043694 6.924798,-5.671832 10.537243,-6.97506 4.19269,-1.512558 12.750059,-1.527114 17.958763,-0.03055 2.04549,0.587711 3.801994,1.179586 3.903346,1.315278 0.101352,0.135692 -0.732928,1.796432 -1.85396,3.690533 -3.26009,5.50828 -5.691216,10.280995 -5.421126,10.642598 0.312132,0.417889 3.47955,-1.882669 9.959481,-7.233772 l 5.025732,-4.150228 3.293206,1.912299 c 4.44737,2.582497 10.897946,6.947732 14.569652,9.859576 5.532693,4.387694 9.457269,8.04492 8.813236,8.212858 -0.339502,0.08853 -4.413483,-0.861231 -9.053292,-2.110575 -21.249283,-5.721714 -32.108942,-5.638061 -41.437092,0.319213 -7.415542,4.735813 -11.322333,13.674043 -11.322333,25.904023 0,14.954742 4.968056,33.023942 16.497836,60.003892 0.541489,1.2671 0.624283,2.85798 0.148737,2.85798 -0.180593,0 -2.599519,-3.12917 -5.375393,-6.95372 z m 523.250268,6.45817 -13.76855,-0.262 -0.21939,-54.54347 c -0.18672,-46.427711 -0.30619,-55.10937 -0.80291,-58.346694 -0.67576,-4.403978 -3.11788,-11.250149 -5.01704,-14.064564 -1.52959,-2.266744 -5.03747,-4.525991 -7.67734,-4.944577 -4.64373,-0.736332 -12.31285,4.002092 -16.73463,10.339676 -3.31837,4.756054 -7.05357,13.493917 -8.55759,20.01909 -2.03329,8.821417 -2.05381,9.335317 -2.27735,57.097709 l -0.208,44.44283 -13.67425,0.13256 -13.67424,0.13256 -0.004,-47.35307 c -0.005,-60.575917 -0.25889,-66.545109 -3.16737,-74.277469 -1.86347,-4.954145 -3.14594,-6.719121 -6.33738,-8.721532 -2.41316,-1.514369 -3.12184,-1.726438 -5.76891,-1.726438 -2.6978,0 -3.32539,0.196664 -5.919,1.854848 -7.20416,4.60584 -11.12024,9.952667 -15.58249,21.275654 -1.81115,4.595824 -2.91173,9.005017 -3.86421,15.481156 -0.55512,3.774368 -0.66017,9.894059 -0.83724,48.758901 l -0.20249,44.44283 -13.67425,0.13256 -13.67424,0.13256 V 81.063958 5.0503215 h 13.76855 13.76855 v 5.3028375 c 0,4.79738 0.0656,5.302838 0.68869,5.302838 0.37877,0 1.1002,-0.600476 1.60319,-1.334391 2.72726,-3.979461 11.81914,-10.0363429 17.83294,-11.880003 1.89829,-0.5819707 3.85912,-1.3125942 4.35743,-1.62360778 1.22306,-0.76342075 12.10663,-0.73516444 13.29215,0.0345093 0.4899,0.31805048 1.99407,0.84665778 3.34263,1.17468278 9.07487,2.2073702 16.30788,7.7916399 21.4809,16.5843527 1.33151,2.263199 2.54446,4.114907 2.69543,4.114907 0.151,0 1.26599,-1.395434 2.47777,-3.100963 1.21182,-1.705529 3.45866,-4.447164 4.99304,-6.092522 3.72958,-3.9993653 12.26823,-9.6240294 16.8257,-11.0836066 1.86724,-0.5980036 3.80272,-1.3369304 4.30106,-1.64205944 1.19127,-0.72939125 12.44251,-0.69869446 12.79506,0.0349088 0.14082,0.29298454 1.10476,0.69993874 2.14212,0.90434284 2.77412,0.5466204 7.55139,2.6575387 10.56217,4.6670771 8.00802,5.3449043 13.26119,13.3893673 15.76443,24.1408203 0.94482,4.057979 2.15355,12.413412 2.15355,14.886437 0,0.728802 0.21219,1.609079 0.47152,1.956171 0.36998,0.495172 0.49646,12.426157 0.58726,55.402027 0.0637,30.12402 -0.0211,54.7184 -0.18861,54.65417 -0.16737,-0.0642 -6.50019,-0.23468 -14.07289,-0.37877 z"
       id="path4091"
       inkscape:connector-curvature="0" />
    <path
       style="fill:#1f1f1f;stroke-width:0.43647277"
       d="m 211.80931,220.36079 c -1.24483,-0.12223 -2.42458,-0.43702 -2.62168,-0.69954 -0.1971,-0.26251 -0.90992,-0.4773 -1.58404,-0.4773 -0.67412,0 -3.0591,-0.47365 -5.29995,-1.05255 -11.08829,-2.86456 -22.82028,-10.42296 -28.15695,-18.14027 -4.02763,-5.82432 -6.96755,-13.8823 -7.31611,-20.0526 l -0.20802,-3.68231 h 13.77339 13.77339 l 0.20789,3.66148 c 0.26804,4.72106 0.75885,6.82578 2.28159,9.7841 1.6036,3.11541 3.96818,5.25833 7.90869,7.16728 4.84449,2.34688 8.55377,3.22638 13.65455,3.2376 5.76401,0.0127 9.22283,-0.97001 13.60312,-3.8648 5.16482,-3.41326 9.87959,-10.09497 12.43872,-17.62798 1.7703,-5.21106 3.19275,-19.13164 3.19275,-31.24546 0,-4.0973 -0.099,-4.94937 -0.57486,-4.94937 -0.31617,0 -1.80148,1.25284 -3.30068,2.78411 -8.19152,8.36668 -19.29806,12.52537 -31.20597,11.68461 -16.83339,-1.18851 -28.46363,-9.74467 -37.37018,-27.49258 -6.9212,-13.79172 -10.04218,-27.66186 -10.43105,-46.357208 -0.29793,-14.323292 0.91514,-25.59916 4.08366,-37.958902 2.88223,-11.242985 5.90116,-18.105556 11.05303,-25.125526 7.43218,-10.1271458 16.09446,-16.1234852 25.91583,-17.9398714 1.74082,-0.3219499 3.45987,-0.7931075 3.82013,-1.04701692 0.84721,-0.59710373 12.16492,-0.60344323 13.02435,-0.007296 0.36026,0.24989692 2.01301,0.72248382 3.67278,1.05019302 6.33867,1.2515228 11.82025,4.4833768 17.80657,10.4984813 1.49476,1.501948 2.89519,2.583988 3.11206,2.404535 0.22923,-0.189673 0.39433,-2.32252 0.39433,-5.0942778 v -4.768 h 13.78762 13.78762 l -0.1372,71.5883078 c -0.12263,63.982361 -0.20659,72.365371 -0.79023,78.902191 -1.33263,14.92569 -3.74749,27.34587 -6.60036,33.94721 -1.87714,4.34357 -8.77702,13.51041 -13.17494,17.50357 -6.67597,6.06155 -13.85194,9.85842 -21.77272,11.52014 -2.07471,0.43525 -4.0764,0.99972 -4.44819,1.25436 -0.7451,0.51032 -12.7115,0.94693 -16.29894,0.59469 z m 11.607,-84.74414 c 6.76307,-1.9187 13.88151,-10.29377 18.07337,-21.26384 2.52989,-6.62073 4.16956,-13.67556 5.27345,-22.689475 0.75945,-6.201289 0.63875,-25.030908 -0.19909,-31.059477 -1.71328,-12.327782 -5.15098,-20.989023 -11.38128,-28.674995 -8.88397,-10.959657 -18.00621,-12.144866 -27.04103,-3.513311 -3.09324,2.955177 -7.41019,9.070651 -9.04144,12.808304 -4.43788,10.168398 -6.12793,20.712797 -6.14169,38.318708 -0.0119,15.225775 1.10056,24.346006 4.17751,34.247916 3.6321,11.68847 10.25558,19.22072 19.19271,21.82603 2.97834,0.86823 4.02756,0.86825 7.08749,1.4e-4 z m 109.858,25.13335 c -9.35876,-1.1503 -18.99364,-5.53117 -26.03814,-11.83924 -11.18229,-10.0133 -19.4931,-30.9798 -21.6911,-54.722264 -0.54509,-5.887978 -0.54498,-20.451342 2e-4,-26.261672 1.63749,-17.452004 6.46209,-33.403872 13.65081,-45.134514 6.7393,-10.997278 19.88511,-19.5801956 32.29562,-21.0858527 1.51064,-0.1832731 2.8368,-0.5285691 2.94702,-0.76732451 0.28705,-0.62182845 13.63601,-0.55382833 13.92441,0.0709315 0.12823,0.2777677 0.85968,0.5057582 1.62545,0.5066457 2.0443,0.00237 7.52625,1.3671338 11.29879,2.8129016 6.70992,2.5714694 15.22362,9.2110424 19.18058,14.9583194 4.76328,6.918433 8.38188,17.485977 8.00839,23.387286 l -0.12784,2.020128 h -13.57993 -13.57994 l -0.2618,-4.229851 c -0.45259,-7.312624 -2.67844,-11.589311 -7.69286,-14.780823 -3.0022,-1.910801 -6.74224,-2.938592 -10.73281,-2.949455 -7.26756,-0.01978 -13.74956,4.17627 -19.97763,12.932303 -4.34291,6.105689 -6.43773,12.41487 -8.02804,24.178791 -0.72045,5.329412 -0.81904,7.857356 -0.81741,20.958834 0.002,16.186306 0.35198,20.792696 2.24459,29.544386 1.51866,7.02252 3.30267,11.38534 6.53901,15.99124 4.5701,6.50406 9.02487,10.2634 14.30413,12.07109 6.43949,2.20496 14.14673,0.45466 19.41312,-4.4087 2.72906,-2.52022 4.82109,-8.77606 4.82109,-14.41665 v -2.41905 h 13.76855 13.76854 v 2.4335 c 0,4.45766 -1.71906,10.29948 -5.09198,17.30398 -2.13884,4.44168 -5.27471,8.4649 -9.63592,12.3626 -7.19545,6.43071 -14.63897,10.0354 -23.29185,11.27962 -3.58844,0.51599 -13.72515,0.63523 -17.24305,0.20284 z m 218.22206,-3.67552 -13.76855,-0.262 -0.21939,-54.54347 c -0.18672,-46.427711 -0.30619,-55.10937 -0.80291,-58.346694 -0.67576,-4.403978 -3.11788,-11.250149 -5.01704,-14.064564 -1.52959,-2.266744 -5.03747,-4.525991 -7.67734,-4.944577 -4.64373,-0.736332 -12.31285,4.002092 -16.73463,10.339676 -3.31837,4.756054 -7.05357,13.493917 -8.55759,20.01909 -2.03329,8.821417 -2.05381,9.335317 -2.27735,57.097709 l -0.208,44.44283 -13.67425,0.13256 -13.67424,0.13256 -0.004,-47.35307 c -0.005,-60.575917 -0.25889,-66.545109 -3.16737,-74.277469 -1.86347,-4.954145 -3.14594,-6.719121 -6.33738,-8.721532 -2.41316,-1.514369 -3.12184,-1.726438 -5.76891,-1.726438 -2.6978,0 -3.32539,0.196664 -5.919,1.854848 -7.20416,4.60584 -11.12024,9.952667 -15.58249,21.275654 -1.81115,4.595824 -2.91173,9.005017 -3.86421,15.481156 -0.55512,3.774368 -0.66017,9.894059 -0.83724,48.758901 l -0.20249,44.44283 -13.67425,0.13256 -13.67424,0.13256 V 81.063958 5.0503215 h 13.76855 13.76855 v 5.3028375 c 0,4.79738 0.0656,5.302838 0.68869,5.302838 0.37877,0 1.1002,-0.600476 1.60319,-1.334391 2.72726,-3.979461 11.81914,-10.0363429 17.83294,-11.880003 1.89829,-0.5819707 3.85912,-1.3125942 4.35743,-1.62360778 1.22306,-0.76342075 12.10663,-0.73516444 13.29215,0.0345093 0.4899,0.31805048 1.99407,0.84665778 3.34263,1.17468278 9.07487,2.2073702 16.30788,7.7916399 21.4809,16.5843527 1.33151,2.263199 2.54446,4.114907 2.69543,4.114907 0.151,0 1.26599,-1.395434 2.47777,-3.100963 1.21182,-1.705529 3.45866,-4.447164 4.99304,-6.092522 3.72958,-3.9993653 12.26823,-9.6240294 16.8257,-11.0836066 1.86724,-0.5980036 3.80272,-1.3369304 4.30106,-1.64205944 1.19127,-0.72939125 12.44251,-0.69869446 12.79506,0.0349088 0.14082,0.29298454 1.10476,0.69993874 2.14212,0.90434284 2.77412,0.5466204 7.55139,2.6575387 10.56217,4.6670771 8.00802,5.3449043 13.26119,13.3893673 15.76443,24.1408203 0.94482,4.057979 2.15355,12.413412 2.15355,14.886437 0,0.728802 0.21219,1.609079 0.47152,1.956171 0.36998,0.495172 0.49646,12.426157 0.58726,55.402027 0.0637,30.12402 -0.0211,54.7184 -0.18861,54.65417 -0.16737,-0.0642 -6.50019,-0.23468 -14.07289,-0.37877 z"
       id="path4089"
       inkscape:connector-curvature="0" />
  </g>
</svg>
